<mxfile host="app.diagrams.net" agent="Mozilla/5.0 (Windows NT 10.0; Win64; x64) AppleWebKit/537.36 (KHTML, like Gecko) Chrome/137.0.0.0 Safari/537.36" version="27.1.5">
  <diagram name="Página-1" id="2Si6IOlOx03iswHGUeGR">
    <mxGraphModel dx="1426" dy="1918" grid="1" gridSize="10" guides="1" tooltips="1" connect="1" arrows="1" fold="1" page="1" pageScale="1" pageWidth="827" pageHeight="1169" math="0" shadow="0">
      <root>
        <mxCell id="0" />
        <mxCell id="1" parent="0" />
        <mxCell id="QlAascM8VkgeOsBPRstS-6" value="" style="edgeStyle=orthogonalEdgeStyle;rounded=0;orthogonalLoop=1;jettySize=auto;html=1;" parent="1" source="QlAascM8VkgeOsBPRstS-4" target="QlAascM8VkgeOsBPRstS-5" edge="1">
          <mxGeometry relative="1" as="geometry" />
        </mxCell>
        <mxCell id="QlAascM8VkgeOsBPRstS-20" style="edgeStyle=orthogonalEdgeStyle;rounded=0;orthogonalLoop=1;jettySize=auto;html=1;exitX=0.855;exitY=0.855;exitDx=0;exitDy=0;exitPerimeter=0;" parent="1" source="QlAascM8VkgeOsBPRstS-4" target="QlAascM8VkgeOsBPRstS-19" edge="1">
          <mxGeometry relative="1" as="geometry" />
        </mxCell>
        <mxCell id="QlAascM8VkgeOsBPRstS-4" value="N8N consulta todos los días los precios de los hoteles y los guarda en BBDD" style="strokeWidth=2;html=1;shape=mxgraph.flowchart.start_2;whiteSpace=wrap;" parent="1" vertex="1">
          <mxGeometry x="336" y="-1160" width="156" height="130" as="geometry" />
        </mxCell>
        <mxCell id="QlAascM8VkgeOsBPRstS-8" value="" style="edgeStyle=orthogonalEdgeStyle;rounded=0;orthogonalLoop=1;jettySize=auto;html=1;" parent="1" source="QlAascM8VkgeOsBPRstS-5" target="QlAascM8VkgeOsBPRstS-7" edge="1">
          <mxGeometry relative="1" as="geometry" />
        </mxCell>
        <mxCell id="QlAascM8VkgeOsBPRstS-5" value="N8N notifica a los usuarios que pidan precios bajos (como AllKeyShop)" style="whiteSpace=wrap;html=1;strokeWidth=2;" parent="1" vertex="1">
          <mxGeometry x="354" y="-990" width="120" height="60" as="geometry" />
        </mxCell>
        <mxCell id="QlAascM8VkgeOsBPRstS-10" value="" style="edgeStyle=orthogonalEdgeStyle;rounded=0;orthogonalLoop=1;jettySize=auto;html=1;" parent="1" source="QlAascM8VkgeOsBPRstS-7" target="QlAascM8VkgeOsBPRstS-9" edge="1">
          <mxGeometry relative="1" as="geometry" />
        </mxCell>
        <mxCell id="QlAascM8VkgeOsBPRstS-12" value="" style="edgeStyle=orthogonalEdgeStyle;rounded=0;orthogonalLoop=1;jettySize=auto;html=1;" parent="1" source="QlAascM8VkgeOsBPRstS-7" target="QlAascM8VkgeOsBPRstS-11" edge="1">
          <mxGeometry relative="1" as="geometry" />
        </mxCell>
        <mxCell id="QlAascM8VkgeOsBPRstS-7" value="Hay un chatbot que realmente se divide en dos" style="whiteSpace=wrap;html=1;strokeWidth=2;" parent="1" vertex="1">
          <mxGeometry x="354" y="-870" width="120" height="60" as="geometry" />
        </mxCell>
        <mxCell id="QlAascM8VkgeOsBPRstS-13" style="edgeStyle=orthogonalEdgeStyle;rounded=0;orthogonalLoop=1;jettySize=auto;html=1;exitX=1;exitY=0.5;exitDx=0;exitDy=0;" parent="1" source="QlAascM8VkgeOsBPRstS-9" target="QlAascM8VkgeOsBPRstS-11" edge="1">
          <mxGeometry relative="1" as="geometry" />
        </mxCell>
        <mxCell id="QlAascM8VkgeOsBPRstS-14" value="SI UN USUARIO PREGUNTA OTRA COSA" style="edgeLabel;html=1;align=center;verticalAlign=middle;resizable=0;points=[];" parent="QlAascM8VkgeOsBPRstS-13" vertex="1" connectable="0">
          <mxGeometry x="-0.0581" y="-2" relative="1" as="geometry">
            <mxPoint as="offset" />
          </mxGeometry>
        </mxCell>
        <mxCell id="QlAascM8VkgeOsBPRstS-9" value="La parte con Rasa (Python) que tiene datos de los hoteles a los que tiene acceso la API, de forma hardcodeada" style="whiteSpace=wrap;html=1;strokeWidth=2;" parent="1" vertex="1">
          <mxGeometry x="150" y="-720" width="140" height="90" as="geometry" />
        </mxCell>
        <mxCell id="QlAascM8VkgeOsBPRstS-16" value="" style="edgeStyle=orthogonalEdgeStyle;rounded=0;orthogonalLoop=1;jettySize=auto;html=1;" parent="1" source="QlAascM8VkgeOsBPRstS-11" target="QlAascM8VkgeOsBPRstS-15" edge="1">
          <mxGeometry relative="1" as="geometry" />
        </mxCell>
        <mxCell id="QlAascM8VkgeOsBPRstS-11" value="La parte con Laragent: un agente de viajes que hace recomendaciones de viajes y demás" style="whiteSpace=wrap;html=1;strokeWidth=2;" parent="1" vertex="1">
          <mxGeometry x="600" y="-702.5" width="220" height="55" as="geometry" />
        </mxCell>
        <mxCell id="QlAascM8VkgeOsBPRstS-18" value="" style="edgeStyle=orthogonalEdgeStyle;rounded=0;orthogonalLoop=1;jettySize=auto;html=1;" parent="1" source="QlAascM8VkgeOsBPRstS-15" target="QlAascM8VkgeOsBPRstS-17" edge="1">
          <mxGeometry relative="1" as="geometry" />
        </mxCell>
        <mxCell id="QlAascM8VkgeOsBPRstS-15" value="Si el usuario le pregunta cuál es el precio más bajo, por ejemplo, se usa un MCP que hace una petición al servidor para obtener toda la info" style="whiteSpace=wrap;html=1;strokeWidth=2;" parent="1" vertex="1">
          <mxGeometry x="630" y="-570" width="160" height="90" as="geometry" />
        </mxCell>
        <mxCell id="QlAascM8VkgeOsBPRstS-17" value="&lt;b&gt;Todo el flujo powered by Laravel&lt;/b&gt;" style="whiteSpace=wrap;html=1;strokeWidth=2;" parent="1" vertex="1">
          <mxGeometry x="334" y="-570" width="160" height="90" as="geometry" />
        </mxCell>
        <mxCell id="3CcB2t9wGRmgZf6Thmqb-2" value="" style="edgeStyle=orthogonalEdgeStyle;rounded=0;orthogonalLoop=1;jettySize=auto;html=1;" parent="1" source="QlAascM8VkgeOsBPRstS-19" target="3CcB2t9wGRmgZf6Thmqb-1" edge="1">
          <mxGeometry relative="1" as="geometry" />
        </mxCell>
        <mxCell id="QlAascM8VkgeOsBPRstS-19" value="Cualquier usuario puede consultar los precios en cualquier momento" style="rounded=0;whiteSpace=wrap;html=1;" parent="1" vertex="1">
          <mxGeometry x="560" y="-1140" width="120" height="60" as="geometry" />
        </mxCell>
        <mxCell id="3CcB2t9wGRmgZf6Thmqb-1" value="Para ser usuario, previamente tendrá que tener el mail verificado con N8N" style="whiteSpace=wrap;html=1;rounded=0;" parent="1" vertex="1">
          <mxGeometry x="560" y="-1000" width="120" height="60" as="geometry" />
        </mxCell>
      </root>
    </mxGraphModel>
  </diagram>
</mxfile>
